<svg xmlns="http://www.w3.org/2000/svg" viewBox="0 0 640 420" role="img" aria-label="Demo dental illustration">
  <defs>
    <linearGradient id="bg" x1="0" y1="0" x2="1" y2="1">
      <stop offset="0" stop-color="#e6fbf6"/>
      <stop offset="1" stop-color="#d7f0ec"/>
    </linearGradient>
    <linearGradient id="tooth" x1="0" y1="0" x2="0" y2="1">
      <stop offset="0" stop-color="#ffffff"/>
      <stop offset="1" stop-color="#eef6f4"/>
    </linearGradient>
  </defs>

  <rect width="640" height="420" rx="20" fill="url(#bg)"/>

  <circle cx="120" cy="96" r="46" fill="#14b8a6" opacity="0.16"/>
  <circle cx="540" cy="320" r="60" fill="#0f766e" opacity="0.12"/>
  <circle cx="520" cy="110" r="14" fill="#14b8a6" opacity="0.35"/>
  <circle cx="150" cy="320" r="9" fill="#0f766e" opacity="0.3"/>

  <path
    d="M320 92c-40-52-122-50-134 22c-8 52 10 94 22 146c7 30 26 44 44 35c16-8 20-44 34-44c14 0 18 36 34 44c18 9 37-5 44-35c12-52 30-94 22-146c-12-72-94-74-134-22Z"
    fill="url(#tooth)" stroke="#0f766e" stroke-width="8" stroke-linejoin="round"
  />
  <path d="M258 150c14-22 44-30 68-22" fill="none" stroke="#14b8a6" stroke-width="10" stroke-linecap="round" opacity="0.7"/>
  <path d="M296 250c16 14 40 14 56 0" fill="none" stroke="#0f766e" stroke-width="9" stroke-linecap="round" opacity="0.5"/>

  <path d="M470 168l8 20l20 8l-20 8l-8 20l-8-20l-20-8l20-8Z" fill="#14b8a6"/>

  <text x="320" y="392" font-family="system-ui, sans-serif" font-size="22" fill="#0f766e" text-anchor="middle" opacity="0.75">Demo</text>
</svg>
